<?xml version="1.0" encoding="UTF-8" standalone="no"?>
<!-- Created with Inkscape (http://www.inkscape.org/) -->

<svg
   xmlns:dc="http://purl.org/dc/elements/1.1/"
   xmlns:cc="http://creativecommons.org/ns#"
   xmlns:rdf="http://www.w3.org/1999/02/22-rdf-syntax-ns#"
   xmlns:svg="http://www.w3.org/2000/svg"
   xmlns="http://www.w3.org/2000/svg"
   version="1.1"
   width="65.013397"
   height="75.570854"
   id="svg2">
  <defs
     id="defs4" />
  <metadata
     id="metadata7">
    <rdf:RDF>
      <cc:Work
         rdf:about="">
        <dc:format>image/svg+xml</dc:format>
        <dc:type
           rdf:resource="http://purl.org/dc/dcmitype/StillImage" />
        <dc:title></dc:title>
      </cc:Work>
    </rdf:RDF>
  </metadata>
  <g
     transform="translate(-46.642856,-46.147895)"
     id="layer1">
    <path
       d="m 47.15625,55.84375 0,56.09375 0,0.34375 0.03125,0 c 0.636956,4.96545 14.701299,8.9375 31.96875,8.9375 17.270354,0 31.3362,-3.97088 31.96875,-8.9375 l 0.0312,0 0,-0.34375 0,-56.09375 -64,0 z"
       id="rect3755"
       style="opacity:0.98999999;fill:#ffffff;fill-opacity:1;stroke:#000000;stroke-width:1;stroke-miterlimit:4;stroke-opacity:1;stroke-dasharray:none;stroke-dashoffset:0" />
    <path
       d="m 111.42857,55.933609 a 32.142857,9.2857141 0 1 1 -64.285713,0 32.142857,9.2857141 0 1 1 64.285713,0 z"
       transform="matrix(0.99555557,0,0,1,0.20952301,0)"
       id="path2985"
       style="opacity:0.98999999;fill:#ffffff;fill-opacity:1;stroke:#000000;stroke-width:1.00222969;stroke-miterlimit:4;stroke-opacity:1;stroke-dasharray:none;stroke-dashoffset:0" />
    <path
       d="m 51.274097,36.726841 a 19.123207,4.6612816 0 1 1 -38.246414,0 19.123207,4.6612816 0 1 1 38.246414,0 z"
       transform="translate(46.642856,46.147895)"
       id="path2987"
       style="fill:none;stroke:#000000;stroke-width:0.99999994;stroke-linecap:round;stroke-miterlimit:4;stroke-opacity:1;stroke-dasharray:1.99999988, 1.99999988;stroke-dashoffset:0" />
    <path
       d="m 51.274097,36.726841 a 19.123207,4.6612816 0 1 1 -38.246414,0 19.123207,4.6612816 0 1 1 38.246414,0 z"
       transform="translate(46.642856,52.147895)"
       id="path2989"
       style="fill:none;stroke:#000000;stroke-width:0.99999994;stroke-linecap:round;stroke-miterlimit:4;stroke-opacity:1;stroke-dasharray:1.99999988, 1.99999988;stroke-dashoffset:0" />
    <path
       d="m 51.274097,36.726841 a 19.123207,4.6612816 0 1 1 -38.246414,0 19.123207,4.6612816 0 1 1 38.246414,0 z"
       transform="translate(46.642856,58.147895)"
       id="path2991"
       style="fill:none;stroke:#000000;stroke-width:0.99999994;stroke-linecap:round;stroke-miterlimit:4;stroke-opacity:1;stroke-dasharray:1.99999988, 1.99999988;stroke-dashoffset:0" />
  </g>
</svg>
